<mxfile host="app.diagrams.net" modified="2021-05-04T13:36:38.903Z" agent="5.0 (Windows)" etag="9rnI9-4UPT2Y5LZ53pex" version="14.6.9" type="github">
  <diagram id="KqNUpz4bSsDNq1EWpwz9" name="第 1 页">
    <mxGraphModel dx="782" dy="551" grid="1" gridSize="10" guides="1" tooltips="1" connect="1" arrows="1" fold="1" page="1" pageScale="1" pageWidth="827" pageHeight="1169" math="0" shadow="0">
      <root>
        <mxCell id="0" />
        <mxCell id="1" parent="0" />
        <mxCell id="UDNK97W12JHsdHOpvgaN-3" value="" style="edgeStyle=orthogonalEdgeStyle;rounded=0;orthogonalLoop=1;jettySize=auto;html=1;" edge="1" parent="1" source="UDNK97W12JHsdHOpvgaN-1" target="UDNK97W12JHsdHOpvgaN-2">
          <mxGeometry relative="1" as="geometry" />
        </mxCell>
        <mxCell id="UDNK97W12JHsdHOpvgaN-1" value="&lt;font style=&quot;font-size: 16px&quot;&gt;&lt;b&gt;X&lt;sup&gt;q&lt;/sup&gt;&lt;/b&gt;&lt;/font&gt;" style="text;html=1;strokeColor=none;fillColor=none;align=center;verticalAlign=middle;whiteSpace=wrap;rounded=0;" vertex="1" parent="1">
          <mxGeometry x="320" y="290" width="40" height="20" as="geometry" />
        </mxCell>
        <mxCell id="UDNK97W12JHsdHOpvgaN-18" value="" style="edgeStyle=orthogonalEdgeStyle;rounded=0;orthogonalLoop=1;jettySize=auto;html=1;" edge="1" parent="1" source="UDNK97W12JHsdHOpvgaN-2" target="UDNK97W12JHsdHOpvgaN-4">
          <mxGeometry relative="1" as="geometry" />
        </mxCell>
        <mxCell id="UDNK97W12JHsdHOpvgaN-2" value="encoer" style="rounded=1;whiteSpace=wrap;html=1;fillColor=#d5e8d4;strokeColor=#82b366;" vertex="1" parent="1">
          <mxGeometry x="300" y="210" width="80" height="40" as="geometry" />
        </mxCell>
        <mxCell id="UDNK97W12JHsdHOpvgaN-4" value="&lt;font style=&quot;font-size: 20px&quot;&gt;&lt;b&gt;q&lt;/b&gt;&lt;/font&gt;" style="text;html=1;strokeColor=none;fillColor=none;align=center;verticalAlign=middle;whiteSpace=wrap;rounded=0;" vertex="1" parent="1">
          <mxGeometry x="320" y="160" width="40" height="20" as="geometry" />
        </mxCell>
        <mxCell id="UDNK97W12JHsdHOpvgaN-8" value="&lt;font style=&quot;font-size: 20px&quot;&gt;&lt;b&gt;q·k&lt;br&gt;&lt;/b&gt;&lt;/font&gt;" style="text;html=1;strokeColor=none;fillColor=none;align=center;verticalAlign=middle;whiteSpace=wrap;rounded=0;" vertex="1" parent="1">
          <mxGeometry x="380" y="110" width="40" height="20" as="geometry" />
        </mxCell>
        <mxCell id="UDNK97W12JHsdHOpvgaN-15" value="" style="edgeStyle=segmentEdgeStyle;endArrow=classic;html=1;" edge="1" parent="1">
          <mxGeometry width="50" height="50" relative="1" as="geometry">
            <mxPoint x="360" y="100" as="sourcePoint" />
            <mxPoint x="320" y="140" as="targetPoint" />
            <Array as="points">
              <mxPoint x="320" y="100" />
            </Array>
          </mxGeometry>
        </mxCell>
        <mxCell id="UDNK97W12JHsdHOpvgaN-16" value="" style="edgeStyle=segmentEdgeStyle;endArrow=classic;html=1;" edge="1" parent="1">
          <mxGeometry width="50" height="50" relative="1" as="geometry">
            <mxPoint x="340" y="160" as="sourcePoint" />
            <mxPoint x="380" y="120" as="targetPoint" />
            <Array as="points">
              <mxPoint x="340" y="120" />
            </Array>
          </mxGeometry>
        </mxCell>
        <mxCell id="UDNK97W12JHsdHOpvgaN-17" value="&lt;font color=&quot;#CCCCCC&quot;&gt;graient&lt;/font&gt;" style="text;html=1;strokeColor=none;fillColor=none;align=center;verticalAlign=middle;whiteSpace=wrap;rounded=0;" vertex="1" parent="1">
          <mxGeometry x="310" y="70" width="40" height="20" as="geometry" />
        </mxCell>
        <mxCell id="UDNK97W12JHsdHOpvgaN-19" value="" style="edgeStyle=orthogonalEdgeStyle;rounded=0;orthogonalLoop=1;jettySize=auto;html=1;" edge="1" source="UDNK97W12JHsdHOpvgaN-20" target="UDNK97W12JHsdHOpvgaN-22" parent="1">
          <mxGeometry relative="1" as="geometry" />
        </mxCell>
        <mxCell id="UDNK97W12JHsdHOpvgaN-20" value="&lt;font style=&quot;font-size: 16px&quot;&gt;&lt;b&gt;X&lt;sup&gt;k&lt;/sup&gt;&lt;/b&gt;&lt;/font&gt;" style="text;html=1;strokeColor=none;fillColor=none;align=center;verticalAlign=middle;whiteSpace=wrap;rounded=0;" vertex="1" parent="1">
          <mxGeometry x="460" y="290" width="40" height="20" as="geometry" />
        </mxCell>
        <mxCell id="UDNK97W12JHsdHOpvgaN-21" value="" style="edgeStyle=orthogonalEdgeStyle;rounded=0;orthogonalLoop=1;jettySize=auto;html=1;" edge="1" source="UDNK97W12JHsdHOpvgaN-22" target="UDNK97W12JHsdHOpvgaN-23" parent="1">
          <mxGeometry relative="1" as="geometry" />
        </mxCell>
        <mxCell id="UDNK97W12JHsdHOpvgaN-22" value="&lt;div&gt;momentum&lt;/div&gt;&lt;div&gt;encoer&lt;br&gt;&lt;/div&gt;" style="rounded=1;whiteSpace=wrap;html=1;fillColor=#d5e8d4;strokeColor=#82b366;" vertex="1" parent="1">
          <mxGeometry x="440" y="210" width="80" height="40" as="geometry" />
        </mxCell>
        <mxCell id="UDNK97W12JHsdHOpvgaN-23" value="&lt;font style=&quot;font-size: 20px&quot;&gt;&lt;b&gt;q&lt;/b&gt;&lt;/font&gt;" style="text;html=1;strokeColor=none;fillColor=none;align=center;verticalAlign=middle;whiteSpace=wrap;rounded=0;" vertex="1" parent="1">
          <mxGeometry x="460" y="160" width="40" height="20" as="geometry" />
        </mxCell>
      </root>
    </mxGraphModel>
  </diagram>
</mxfile>
